<svg xmlns="http://www.w3.org/2000/svg" xmlns:xlink="http://www.w3.org/1999/xlink" viewBox="0 0 59.00725799999999 44.25544349999999" height="44.25544349999999" width="59.00725799999999" data-background-color="#111111" preserveAspectRatio="xMidYMid meet" id="tight-bounds"><g><svg viewBox="0 0 59.00725799999999 44.25544349999999" height="44.25544349999999" width="59.00725799999999"><g><svg viewBox="0 0 59.00725799999999 44.25544349999999" height="44.25544349999999" width="59.00725799999999"><g><svg viewBox="0 0 59.00725799999999 44.25544349999999" height="44.25544349999999" width="59.00725799999999"><g id="textblocktransform"><svg viewBox="0 0 59.00725799999999 44.25544349999999" height="44.25544349999999" width="59.00725799999999" id="textblock"><g><svg viewBox="0 0 59.00725799999999 44.25544349999999" height="44.25544349999999" width="59.00725799999999"><g><svg viewBox="0 0 59.00725799999999 44.25544349999999" height="44.25544349999999" width="59.00725799999999"><g><svg xmlns="http://www.w3.org/2000/svg" xmlns:xlink="http://www.w3.org/1999/xlink" version="1.1" x="0" y="0" viewBox="0 3 24 18" style="enable-background:new 0 0 24 24;" xml:space="preserve" height="44.25544349999999" width="59.00725799999999" class="icon-icon-0" data-fill-palette-color="accent" id="icon-0"><g fill="#802135" data-fill-palette-color="accent"><g fill="#802135" data-fill-palette-color="accent"><path d="M2.075 12h19.85c0.173 0 0.334-0.09 0.425-0.237 0.091-0.147 0.1-0.331 0.022-0.486l-3.566-7.136c-0.009-0.019-0.02-0.037-0.032-0.054C18.432 3.424 17.743 3 17 3H7C6.258 3 5.57 3.424 5.228 4.083 5.215 4.102 5.204 4.122 5.194 4.141l-3.566 7.136c-0.078 0.155-0.069 0.339 0.022 0.486C1.741 11.909 1.902 12 2.075 12zM22 13H2c-1.103 0-2 0.897-2 2v4c0 1.103 0.897 2 2 2h20c1.103 0 2-0.897 2-2v-4C24 13.896 23.103 13 22 13zM6 15c0.551 0 1 0.449 1 1s-0.449 1-1 1c-0.551 0-1-0.449-1-1S5.449 15 6 15zM3 15c0.551 0 1 0.449 1 1s-0.449 1-1 1c-0.551 0-1-0.449-1-1S2.449 15 3 15zM21.5 19h-19C2.224 19 2 18.776 2 18.5S2.224 18 2.5 18h19c0.276 0 0.5 0.224 0.5 0.5S21.776 19 21.5 19z" fill="#802135" data-fill-palette-color="accent"/></g></g></svg></g></svg></g></svg></g></svg></g></svg></g></svg></g></svg></g><defs><mask/></defs></svg>