<svg xmlns="http://www.w3.org/2000/svg" xmlns:xlink="http://www.w3.org/1999/xlink" viewBox="0 0 245.8758614259052 590.0725799999999" height="50" width="50" data-background-color="#111111" preserveAspectRatio="xMidYMid meet" id="tight-bounds">
            <g>
              <svg viewBox="0 0 245.8758614259052 590.0725799999999" height="590.0725799999999" width="245.8758614259052">
                <g>
                  <svg viewBox="0 0 245.8758614259052 590.0725799999999" height="590.0725799999999" width="245.8758614259052">
                    <g>
                      <svg viewBox="0 0 245.8758614259052 590.0725799999999" height="590.0725799999999" width="245.8758614259052">
                        <g id="textblocktransform">
                          <svg viewBox="0 0 245.8758614259052 590.0725799999999" height="590.0725799999999" width="245.8758614259052" id="textblock">
                            <g>
                              <svg viewBox="0 0 245.8758614259052 590.0725799999999" height="590.0725799999999" width="245.8758614259052">
                                <g>
                                  <svg viewBox="0 0 245.8758614259052 590.0725799999999" height="590.0725799999999" width="245.8758614259052">
                                    <g>
                                      <svg xmlns="http://www.w3.org/2000/svg" xmlns:xlink="http://www.w3.org/1999/xlink" version="1.1" x="0" y="0" viewBox="149.3280029296875 0 213.343994140625 512" enable-background="new 0 0 512 512" xml:space="preserve" height="590.0725799999999" width="245.8758614259052" class="icon-icon-0" data-fill-palette-color="accent" id="icon-0">
                                        <g fill="#802135" data-fill-palette-color="accent">
                                          <path d="M234.672 64h-21.344c-5.891 0-10.656 4.773-10.656 10.664s4.766 10.672 10.656 10.672h21.344c5.891 0 10.656-4.781 10.656-10.672S240.563 64 234.672 64z" fill="#802135" data-fill-palette-color="accent"/>
                                          <path d="M341.328 128V10.664C341.328 4.773 336.563 0 330.672 0H181.328c-5.891 0-10.656 4.773-10.656 10.664V128h-21.344v277.344C149.328 464.25 197.094 512 256 512s106.672-47.75 106.672-106.656V128H341.328zM192 21.336h128V128H192V21.336zM341.328 405.344c0 22.781-8.875 44.219-24.984 60.328-16.125 16.109-37.547 24.984-60.344 24.984s-44.219-8.875-60.344-24.984c-16.109-16.109-24.984-37.547-24.984-60.328V149.336h42.656c0 5.891 4.781 10.664 10.672 10.664h64c5.891 0 10.672-4.773 10.672-10.664h42.656V405.344z" fill="#802135" data-fill-palette-color="accent"/>
                                          <path d="M298.781 64h-21.344c-5.875 0-10.656 4.773-10.656 10.664s4.781 10.672 10.656 10.672h21.344c5.891 0 10.656-4.781 10.656-10.672S304.672 64 298.781 64z" fill="#802135" data-fill-palette-color="accent"/>
                                          <path d="M256 458.656c-29.406 0-53.328-23.906-53.328-53.313v-234.68c0-5.891-4.781-10.664-10.672-10.664s-10.672 4.773-10.672 10.664v234.68C181.328 446.563 214.766 480 256 480c5.891 0 10.672-4.781 10.672-10.656C266.672 463.438 261.891 458.656 256 458.656z" fill="#802135" data-fill-palette-color="accent"/>
                                        </g>
                                      </svg>
                                    </g>
                                  </svg>
                                </g>
                              </svg>
                            </g>
                          </svg>
                        </g>
                      </svg>
                    </g>
                  </svg>
                </g>
              </svg>
            </g>
            <defs>
              <mask/>
            </defs>
          </svg>